<?xml version="1.0" encoding="utf-8"?>
<!-- Generator: Adobe Illustrator 24.3.0, SVG Export Plug-In . SVG Version: 6.00 Build 0)  -->
<svg version="1.1" id="Слой_1" xmlns="http://www.w3.org/2000/svg" xmlns:xlink="http://www.w3.org/1999/xlink" x="0px" y="0px"
	 viewBox="0 0 519 150" style="enable-background:new 0 0 519 150;" xml:space="preserve">
<style type="text/css">
	.st0{fill:#FFFFFF;}
	.st1{fill:#FC3F1D;}
</style>
<path class="st0" d="M494.8,130.6c10.2,0,17.4-1.8,22.8-5.8v-18c-5.5,3.8-12.2,6.2-21.5,6.2c-15.7,0-22.2-12.2-22.2-31.4
	c0-20.2,7.9-30.6,22.3-30.6c8.5,0,16.8,3,21.2,5.8V38.2c-4.7-2.5-12.7-4.4-23.8-4.4c-28.1,0-42.7,20.2-42.7,48.5
	C451.1,113.3,465.4,130.6,494.8,130.6z M357.2,122.4v-18c-6.8,4.7-18.4,8.8-29,8.8c-16.1,0-22.2-7.6-23.2-23.2h53.2V78.4
	c0-32.4-14.3-44.6-36.2-44.6c-26.9,0-39.6,20.5-39.6,48.7c0,32.4,16,48.1,44,48.1C340.4,130.6,350.7,126.8,357.2,122.4z M155.4,35.5
	v36.8H126V35.5h-22.1v93.3H126V89.9h29.4v38.9h22.1V35.5H155.4z M276.9,111.2h-9.8V35.5h-64.2v7.9c0,22.8-1.4,52.2-9.2,67.8h-7.1
	V150H207v-21.2h49.4V150h20.4v-38.8H276.9z M427.5,128.8h25l-35.4-50.2l31.1-43h-22.2l-31.1,43v-43h-22.1v93.3H395V82.9L427.5,128.8
	z M321.4,51.1c10.9,0,14.3,9.1,14.3,20.8v1.8H305C305.6,58.9,311,51.1,321.4,51.1z M245.1,111.2H214c6.1-14,7.8-39.5,7.8-55.6v-2.8
	h23.3V111.2z"/>
<path class="st1" d="M85.6,128.8H63.1V17.4H53c-18.4,0-28,9.2-28,22.9c0,15.6,6.6,22.8,20.4,32L56.7,80l-32.5,48.8H0l29.3-43.6
	C12.4,73.2,3,61.4,3,41.6C3,16.8,20.2,0,52.9,0h32.5L85.6,128.8z"/>
</svg>

