<svg width="19" height="19" viewBox="0 0 19 19" fill="none" xmlns="http://www.w3.org/2000/svg">
<path d="M17.8125 12.5718L13.4156 10.6968C13.1888 10.5951 12.9397 10.553 12.692 10.5743C12.4443 10.5956 12.2061 10.6797 12 10.8187L9.64687 12.3843C8.21273 11.6878 7.05158 10.5332 6.34687 9.10306V9.10306L7.90312 6.72181C8.04116 6.51544 8.12547 6.27787 8.14839 6.03065C8.17131 5.78344 8.13212 5.53441 8.03437 5.30618L6.15 0.909309C6.01851 0.612416 5.79586 0.365126 5.51435 0.2033C5.23284 0.0414738 4.90711 -0.0264743 4.58437 0.00930916C3.31837 0.175157 2.15566 0.795096 1.31243 1.75386C0.469194 2.71263 0.00281471 3.94499 0 5.22181C0 12.6656 6.05625 18.7218 13.5 18.7218C14.7768 18.719 16.0092 18.2526 16.9679 17.4094C17.9267 16.5661 18.5467 15.4034 18.7125 14.1374C18.7483 13.8147 18.6803 13.489 18.5185 13.2075C18.3567 12.9259 18.1094 12.7033 17.8125 12.5718Z" fill="#111111"/>
<path d="M11.7563 2.19609C12.8979 2.50798 13.9384 3.11215 14.7753 3.94897C15.6121 4.7858 16.2162 5.82635 16.5281 6.96796C16.5695 7.12824 16.6628 7.27033 16.7933 7.37208C16.9239 7.47382 17.0845 7.52951 17.25 7.53046C17.3166 7.53034 17.3829 7.52087 17.4469 7.50234C17.5422 7.47739 17.6316 7.43367 17.7099 7.37373C17.7881 7.3138 17.8536 7.23885 17.9025 7.15329C17.9513 7.06772 17.9827 6.97326 17.9946 6.87544C18.0065 6.77761 17.9988 6.67839 17.9719 6.58359C17.5969 5.18548 16.8607 3.91064 15.8371 2.88709C14.8136 1.86354 13.5387 1.12731 12.1406 0.752339C12.0428 0.716698 11.9386 0.701818 11.8347 0.708646C11.7308 0.715474 11.6295 0.743861 11.5372 0.791999C11.4448 0.840137 11.3635 0.906972 11.2985 0.988248C11.2334 1.06952 11.1859 1.16346 11.1592 1.26408C11.1324 1.36469 11.1268 1.46979 11.1429 1.57266C11.1589 1.67554 11.1962 1.77395 11.2524 1.86162C11.3086 1.94929 11.3824 2.02431 11.4691 2.08189C11.5559 2.13948 11.6537 2.17837 11.7563 2.19609V2.19609Z" fill="#111111"/>
<path d="M10.9781 5.09062C11.6127 5.26433 12.1911 5.60034 12.6563 6.06556C13.1215 6.53078 13.4575 7.10917 13.6312 7.74375C13.6712 7.90482 13.764 8.04783 13.8949 8.14983C14.0258 8.25183 14.1872 8.30691 14.3531 8.30625C14.4167 8.30687 14.48 8.29737 14.5406 8.27812C14.6368 8.2542 14.7272 8.21122 14.8065 8.15173C14.8858 8.09223 14.9523 8.01743 15.0021 7.93175C15.0519 7.84608 15.0841 7.75127 15.0966 7.65295C15.1091 7.55463 15.1018 7.4548 15.075 7.35937C14.8382 6.46829 14.3702 5.6556 13.7182 5.00365C13.0663 4.3517 12.2536 3.88363 11.3625 3.64687C11.2647 3.61123 11.1605 3.59635 11.0566 3.60318C10.9527 3.61001 10.8514 3.63839 10.759 3.68653C10.6667 3.73467 10.5854 3.8015 10.5203 3.88278C10.4553 3.96405 10.4078 4.05799 10.381 4.15861C10.3542 4.25923 10.3487 4.36432 10.3647 4.46719C10.3808 4.57007 10.4181 4.66848 10.4743 4.75615C10.5304 4.84382 10.6042 4.91884 10.691 4.97642C10.7777 5.03401 10.8755 5.0729 10.9781 5.09062V5.09062Z" fill="#111111"/>
</svg>
