<?xml version="1.0" encoding="utf-8"?>
<!-- Generator: Adobe Illustrator 24.3.0, SVG Export Plug-In . SVG Version: 6.00 Build 0)  -->
<svg version="1.1" id="Слой_1" xmlns="http://www.w3.org/2000/svg" xmlns:xlink="http://www.w3.org/1999/xlink" x="0px" y="0px"
	 viewBox="0 0 1562.8 358.3" style="enable-background:new 0 0 1562.8 358.3;" xml:space="preserve">
<style type="text/css">
	.st0{fill:#FFFFFF;}
</style>
<g id="Слой_2_1_">
	<g id="Layer_1">
		<path class="st0" d="M293,12c29.4,0,53.2,23.9,53.3,53.3V293c0,29.4-23.9,53.2-53.3,53.3H65.3C35.9,346.2,12,322.4,12,293V65.3
			C12,35.9,35.9,12,65.3,12H293 M293,0H65.3C29.2,0,0,29.2,0,65.3c0,0,0,0,0,0V293c0,36,29.2,65.3,65.3,65.3h0H293
			c36,0,65.3-29.2,65.3-65.3c0,0,0,0,0,0V65.3C358.3,29.2,329,0,293,0C293,0,293,0,293,0z"/>
		<path class="st0" d="M288.8,98.4c1.8-2.8,0.6-5-2.7-5h-77c-3.7,0.2-7.1,2-9.2,5l-86.1,133.3c-1.8,3.1-1.8,7-0.1,10.1l37.7,59.7
			c1.8,2.8,4.7,2.8,6.5,0L288.8,98.4z"/>
		<path class="st0" d="M169.3,93.4c3.3,0,4.5,2.3,2.8,5l-46.4,71.9c-1.8,2.8-4.7,2.8-6.4,0L73.9,98.4c-1.8-2.8-0.5-5.1,2.8-5.1
			H169.3z"/>
		<rect x="862.9" y="93.1" class="st0" width="36" height="163.8"/>
		<polygon class="st0" points="563.5,93.1 517.1,186.4 473.4,93.1 431.8,93.1 496.1,230.2 449.2,322.4 491.1,322.4 605.8,93.1 		"/>
		<rect x="792.2" y="4.6" class="st0" width="35.7" height="252.2"/>
		<path class="st0" d="M686.3,123.9c19.7,0.1,37.6,11.4,46.2,29.1h37c-10.1-37.5-44.3-63.5-83.2-63.2c-47.2,0-84.5,38.3-84.5,85.2
			c0,47.2,37.3,85.2,84.5,85.2c40.3,0,73.4-27.5,83.2-65.2h-37c-8.2,18.2-26.2,30-46.2,30.1c-27.2,0-50.5-22.9-50.5-50.1
			C635.9,146.5,659.2,123.9,686.3,123.9z"/>
		<path class="st0" d="M880.9,27.9c-13.1,0-22.6,9.8-22.6,22.3c0,12.8,9.5,23.6,22.6,23.6c12.8,0,22.6-10.8,22.6-23.6
			c0.1-12.2-9.8-22.2-22.1-22.3C881.3,27.9,881.1,27.9,880.9,27.9z"/>
		<path class="st0" d="M1332.6,40.7h-35.4v180.5c0,21.6,16.7,35.7,36.7,35.7h51.4v-35.4h-43c-5.4,0-9.7-4.3-9.7-9.7v-83.3h52.7V93.1
			h-52.7L1332.6,40.7z"/>
		<path class="st0" d="M1011,89.8c-24.2,0-45.2,7.9-61.9,24.6c-14.7,16.4-22.7,37.6-22.6,59.6c0,23.6,8.5,45.9,23.6,61.2
			c16,15.1,37.3,24.9,60.9,24.9s45.2-9.8,61.6-25.9c7.2-6.9,11.8-14.7,16.4-24.2l-41.9,1c-9.2,9.5-21.3,14.4-36,14.4
			c-14.4,0-26.9-4.6-35.7-14.1c-6.2-6.1-10.8-13.7-13.2-22h132.7l0.1-2.8c0.3-3.6,0.9-8.4,0.9-12.6
			C1095.8,125.5,1059.1,89.8,1011,89.8z M963,156.3c7-19.3,25.3-32.4,48-32.4c22.4,0,40.4,13.1,47.6,32.4H963z"/>
		<path class="st0" d="M1199.3,89.8c-15.1,0-29.4,4.3-40.3,14.6V93.1h-35.4v163.8h35.4v-94.3c0-21,15.7-39.3,36.4-39.3
			c21.6,0,37.3,18,37.3,39.3v94.3h35.4v-97C1268.1,119.3,1239.9,89.8,1199.3,89.8z"/>
		<path class="st0" d="M1512.8,157h-51.2c-7.8-0.2-14-6.7-13.8-14.6c0.2-7.5,6.3-13.6,13.8-13.8h91.7V93h-91.7
			c-27.6,0-50,22.4-50,50s22.4,50,50,50h51.2c7.6-0.2,13.8,5.9,14,13.4c0,0.2,0,0.4,0,0.6c0,7.8-6.2,14.1-14,14.3h-94.7V257h94.7
			c27.6,0,50-22.4,50-50S1540.4,157,1512.8,157z"/>
	</g>
</g>
</svg>

