<?xml version="1.0" encoding="utf-8"?>
<!-- Generator: Adobe Illustrator 22.0.1, SVG Export Plug-In . SVG Version: 6.00 Build 0)  -->
<svg version="1.1" id="jivo.svg" xmlns="http://www.w3.org/2000/svg" xmlns:xlink="http://www.w3.org/1999/xlink" x="0px" y="0px"
	 viewBox="0 0 109.5 76.5" style="enable-background:new 0 0 109.5 76.5;" xml:space="preserve">
<style type="text/css">
	.st0{fill:#FFFFFF;}
	.st1{fill:#66F45B;}
</style>
<path id="Фигура_13" class="st0" d="M39.4,27.3h-3c-0.3,0-0.6,0.1-0.9,0.4c-0.2,0.2-0.4,0.5-0.4,0.8v22.6
	c0,0.3,0.1,0.6,0.4,0.9c0.2,0.2,0.5,0.4,0.9,0.4h3c0.3,0,0.6-0.1,0.8-0.4c0.3-0.2,0.4-0.5,0.4-0.9V28.5c0-0.3-0.2-0.6-0.4-0.8
	C40,27.4,39.7,27.3,39.4,27.3z M67.1,27.3h-2.4C64,27.2,63.4,27.4,63,28l-7,15.3h-0.1L49.2,28c-0.2-0.4-0.6-0.7-1.1-0.7h-3.3
	c-0.4,0-0.8,0.1-1,0.4s-0.2,0.7,0.1,1l10.8,23.6c0.2,0.4,0.6,0.7,1.1,0.6h0.3c0.4,0,0.8-0.2,1-0.6l10.8-23.6c0.2-0.3,0.2-0.7,0.1-1
	C67.8,27.5,67.4,27.3,67.1,27.3z M81.7,26.8c-3.4,0-6.7,1.3-9,3.8c-2.4,2.4-3.8,5.7-3.8,9.2s1.3,6.8,3.7,9.3
	c4.7,5,12.5,5.2,17.4,0.6c0.2-0.2,0.4-0.4,0.6-0.6c2.4-2.5,3.8-5.8,3.8-9.3c0-3.4-1.3-6.7-3.8-9.2C88.4,28.1,85.1,26.7,81.7,26.8z
	 M87,45.5c-2.8,2.9-7.4,3.1-10.4,0.3c-0.1-0.1-0.2-0.2-0.3-0.3c-1.4-1.6-2.2-3.6-2.2-5.7c-0.1-2.1,0.7-4.1,2.2-5.6
	c1.4-1.5,3.3-2.3,5.3-2.2c2-0.1,3.9,0.8,5.3,2.2c1.4,1.5,2.2,3.5,2.2,5.6C89.2,41.9,88.5,43.9,87,45.5z M28,27.3h-8.6
	c-0.6,0.1-1.1,0.6-1.2,1.2v3c0,0.3,0.1,0.6,0.4,0.9c0.2,0.2,0.5,0.4,0.8,0.4h4.4v21.8c0,2-1.5,3.7-3.5,4h-0.9
	c-0.3,0-0.6,0.1-0.9,0.4c-0.2,0.2-0.4,0.5-0.4,0.9v3c0,0.3,0.1,0.6,0.3,0.9c0.2,0.2,0.5,0.4,0.9,0.4h0.4c5,0,9.1-3.9,9.4-8.8
	c0-0.2,0.1-0.4,0-0.6V28.5c0-0.3-0.1-0.6-0.4-0.9C28.6,27.4,28.3,27.3,28,27.3z"/>
<path id="Фигура_13_копия" class="st1" d="M18.2,9.2c-0.7,14.2,11,16.3,11,16.3C28.6,9.9,18.2,9.2,18.2,9.2z"/>
</svg>

