<svg width="584" height="150" viewBox="0 0 584 150" fill="none" xmlns="http://www.w3.org/2000/svg">
<rect width="584" height="150" rx="15" fill="white"/>
<path d="M103.646 51.142L86.4048 84.6413L69.0661 51.142H49V98.8214H62.7346L62.6372 70.8419V65.0366L65.1698 70.4612L80.0733 98.8214H92.639L107.64 70.4612L110.075 65.1318V98.8214H123.712V51.142H103.646Z" fill="url(#paint0_linear_47224_201519)"/>
<path d="M194.276 86.735C191.257 86.735 189.795 85.4026 189.795 82.9283V71.1274C189.795 57.899 179.762 50 162.618 50C145.864 50 135.149 57.328 135.149 68.5578V68.8433H149.371V68.5578C149.371 64.6559 154.144 62.2767 162.521 62.2767C170.509 62.2767 174.795 64.5608 175.574 69.3192L151.514 71.8887C140.604 73.0307 134.76 77.7892 134.76 85.4978C134.76 94.634 142.845 99.9634 156.579 99.9634C165.638 99.9634 172.652 97.6794 177.619 93.1113C179.86 96.8228 184.341 98.8214 190.282 98.8214H198.562V86.735H194.276ZM157.553 88.9239C151.806 88.9239 148.884 87.6867 148.884 85.1171C148.884 82.8331 150.929 81.5959 155.215 81.1201L175.671 78.836V82.0717C172.749 86.2592 165.833 88.9239 157.553 88.9239Z" fill="url(#paint1_linear_47224_201519)"/>
<path d="M236.339 50C229.91 50 224.26 51.9034 219.877 55.2343L219.487 51.142H206.337V115H220.462V95.3001C224.748 98.3455 230.105 99.9634 236.339 99.9634C253.58 99.9634 264.685 90.2562 264.685 75.41V74.4583C264.685 59.612 253.678 50 236.339 50ZM250.074 75.41C250.074 83.0234 244.424 87.4012 234.975 87.4012C228.839 87.4012 223.384 85.3075 220.462 82.0717V67.7965C223.286 64.5608 228.741 62.5622 234.975 62.5622C244.521 62.5622 250.074 66.94 250.074 74.4583V75.41Z" fill="url(#paint2_linear_47224_201519)"/>
<path d="M313.093 74.4583L332.38 53.1406V51.142H316.308L300.333 68.8433H289.618V51.142H275.493V98.8214H289.618V80.7394H300.917L317.671 98.8214H333.451V96.8228L313.093 74.4583Z" fill="url(#paint3_linear_47224_201519)"/>
<path d="M392.824 74.5534C396.623 72.5549 398.669 69.4143 398.669 65.3221V64.3704C398.669 55.9004 391.266 51.142 378.116 51.142H342.367V98.8214H379.577C392.629 98.8214 399.935 94.063 399.935 85.4026V84.451C399.935 79.8829 397.5 76.552 392.824 74.5534ZM377.141 61.2299C381.72 61.2299 384.057 62.4671 384.057 65.0366V65.9883C384.057 68.5578 381.72 69.9854 377.141 69.9854H356.491V61.2299H377.141ZM385.421 84.6413C385.421 87.306 383.083 88.7335 378.505 88.7335H356.491V79.6925H378.505C382.986 79.6925 385.421 81.1201 385.421 83.6896V84.6413Z" fill="url(#paint4_linear_47224_201519)"/>
<path d="M411.523 98.8214H424.283L453.214 67.8917V98.8214H466.753V51.142H453.993L425.063 82.0717V51.142H411.523V98.8214Z" fill="url(#paint5_linear_47224_201519)"/>
<path d="M528.597 74.6486C532.493 72.3646 534.636 69.224 534.636 65.3221V64.6559C534.636 55.3294 524.798 50 507.459 50C487.88 50 478.042 57.0425 478.042 70.937V71.5081H491.679V70.937C491.679 63.9897 495.965 61.2299 506.778 61.2299C515.447 61.2299 520.122 62.6574 520.122 65.4173V65.9883C520.122 68.5578 517.785 69.6047 512.622 69.6047H499.082V80.0732H513.596C518.954 80.0732 521.291 81.2152 521.291 83.6896V84.2606C521.291 87.2108 516.713 88.8287 508.044 88.8287C496.55 88.8287 491.679 85.8785 491.679 79.1215V78.5505H478.042V79.1215C478.042 93.3968 487.588 99.9634 507.946 99.9634C526.259 99.9634 536 94.9195 536 85.4026V84.7365C536 80.3587 533.37 76.8375 528.597 74.6486Z" fill="url(#paint6_linear_47224_201519)"/>
<path d="M103.646 51.142L86.4048 84.6413L69.0661 51.142H49V98.8214H62.7346L62.6372 70.8419V65.0366L65.1698 70.4612L80.0733 98.8214H92.639L107.64 70.4612L110.075 65.1318V98.8214H123.712V51.142H103.646Z" fill="url(#paint7_linear_47224_201519)"/>
<path d="M194.276 86.735C191.257 86.735 189.795 85.4026 189.795 82.9283V71.1274C189.795 57.899 179.762 50 162.618 50C145.864 50 135.149 57.328 135.149 68.5578V68.8433H149.371V68.5578C149.371 64.6559 154.144 62.2767 162.521 62.2767C170.509 62.2767 174.795 64.5608 175.574 69.3192L151.514 71.8887C140.604 73.0307 134.76 77.7892 134.76 85.4978C134.76 94.634 142.845 99.9634 156.579 99.9634C165.638 99.9634 172.652 97.6794 177.619 93.1113C179.86 96.8228 184.341 98.8214 190.282 98.8214H198.562V86.735H194.276ZM157.553 88.9239C151.806 88.9239 148.884 87.6867 148.884 85.1171C148.884 82.8331 150.929 81.5959 155.215 81.1201L175.671 78.836V82.0717C172.749 86.2592 165.833 88.9239 157.553 88.9239Z" fill="url(#paint8_linear_47224_201519)"/>
<path d="M236.339 50C229.91 50 224.26 51.9034 219.877 55.2343L219.487 51.142H206.337V115H220.462V95.3001C224.748 98.3455 230.105 99.9634 236.339 99.9634C253.58 99.9634 264.685 90.2562 264.685 75.41V74.4583C264.685 59.612 253.678 50 236.339 50ZM250.074 75.41C250.074 83.0234 244.424 87.4012 234.975 87.4012C228.839 87.4012 223.384 85.3075 220.462 82.0717V67.7965C223.286 64.5608 228.741 62.5622 234.975 62.5622C244.521 62.5622 250.074 66.94 250.074 74.4583V75.41Z" fill="url(#paint9_linear_47224_201519)"/>
<path d="M313.093 74.4583L332.38 53.1406V51.142H316.308L300.333 68.8433H289.618V51.142H275.493V98.8214H289.618V80.7394H300.917L317.671 98.8214H333.451V96.8228L313.093 74.4583Z" fill="url(#paint10_linear_47224_201519)"/>
<path d="M392.824 74.5534C396.623 72.5549 398.669 69.4143 398.669 65.3221V64.3704C398.669 55.9004 391.266 51.142 378.116 51.142H342.367V98.8214H379.577C392.629 98.8214 399.935 94.063 399.935 85.4026V84.451C399.935 79.8829 397.5 76.552 392.824 74.5534ZM377.141 61.2299C381.72 61.2299 384.057 62.4671 384.057 65.0366V65.9883C384.057 68.5578 381.72 69.9854 377.141 69.9854H356.491V61.2299H377.141ZM385.421 84.6413C385.421 87.306 383.083 88.7335 378.505 88.7335H356.491V79.6925H378.505C382.986 79.6925 385.421 81.1201 385.421 83.6896V84.6413Z" fill="url(#paint11_linear_47224_201519)"/>
<path d="M411.523 98.8214H424.283L453.214 67.8917V98.8214H466.753V51.142H453.993L425.063 82.0717V51.142H411.523V98.8214Z" fill="url(#paint12_linear_47224_201519)"/>
<path d="M528.597 74.6486C532.493 72.3646 534.636 69.224 534.636 65.3221V64.6559C534.636 55.3294 524.798 50 507.459 50C487.88 50 478.042 57.0425 478.042 70.937V71.5081H491.679V70.937C491.679 63.9897 495.965 61.2299 506.778 61.2299C515.447 61.2299 520.122 62.6574 520.122 65.4173V65.9883C520.122 68.5578 517.785 69.6047 512.622 69.6047H499.082V80.0732H513.596C518.954 80.0732 521.291 81.2152 521.291 83.6896V84.2606C521.291 87.2108 516.713 88.8287 508.044 88.8287C496.55 88.8287 491.679 85.8785 491.679 79.1215V78.5505H478.042V79.1215C478.042 93.3968 487.588 99.9634 507.946 99.9634C526.259 99.9634 536 94.9195 536 85.4026V84.7365C536 80.3587 533.37 76.8375 528.597 74.6486Z" fill="url(#paint13_linear_47224_201519)"/>
<defs>
<linearGradient id="paint0_linear_47224_201519" x1="49" y1="80.5882" x2="536" y2="80.5882" gradientUnits="userSpaceOnUse">
<stop stop-color="#D13980"/>
<stop offset="1" stop-color="#EB4F98"/>
</linearGradient>
<linearGradient id="paint1_linear_47224_201519" x1="49" y1="80.5882" x2="536" y2="80.5882" gradientUnits="userSpaceOnUse">
<stop stop-color="#D13980"/>
<stop offset="1" stop-color="#EB4F98"/>
</linearGradient>
<linearGradient id="paint2_linear_47224_201519" x1="49" y1="80.5882" x2="536" y2="80.5882" gradientUnits="userSpaceOnUse">
<stop stop-color="#D13980"/>
<stop offset="1" stop-color="#EB4F98"/>
</linearGradient>
<linearGradient id="paint3_linear_47224_201519" x1="49" y1="80.5882" x2="536" y2="80.5882" gradientUnits="userSpaceOnUse">
<stop stop-color="#D13980"/>
<stop offset="1" stop-color="#EB4F98"/>
</linearGradient>
<linearGradient id="paint4_linear_47224_201519" x1="49" y1="80.5882" x2="536" y2="80.5882" gradientUnits="userSpaceOnUse">
<stop stop-color="#D13980"/>
<stop offset="1" stop-color="#EB4F98"/>
</linearGradient>
<linearGradient id="paint5_linear_47224_201519" x1="49" y1="80.5882" x2="536" y2="80.5882" gradientUnits="userSpaceOnUse">
<stop stop-color="#D13980"/>
<stop offset="1" stop-color="#EB4F98"/>
</linearGradient>
<linearGradient id="paint6_linear_47224_201519" x1="49" y1="80.5882" x2="536" y2="80.5882" gradientUnits="userSpaceOnUse">
<stop stop-color="#D13980"/>
<stop offset="1" stop-color="#EB4F98"/>
</linearGradient>
<linearGradient id="paint7_linear_47224_201519" x1="49" y1="80.5882" x2="536" y2="80.5882" gradientUnits="userSpaceOnUse">
<stop stop-color="#D13980"/>
<stop offset="1" stop-color="#EB4F98"/>
</linearGradient>
<linearGradient id="paint8_linear_47224_201519" x1="49" y1="80.5882" x2="536" y2="80.5882" gradientUnits="userSpaceOnUse">
<stop stop-color="#D13980"/>
<stop offset="1" stop-color="#EB4F98"/>
</linearGradient>
<linearGradient id="paint9_linear_47224_201519" x1="49" y1="80.5882" x2="536" y2="80.5882" gradientUnits="userSpaceOnUse">
<stop stop-color="#D13980"/>
<stop offset="1" stop-color="#EB4F98"/>
</linearGradient>
<linearGradient id="paint10_linear_47224_201519" x1="49" y1="80.5882" x2="536" y2="80.5882" gradientUnits="userSpaceOnUse">
<stop stop-color="#D13980"/>
<stop offset="1" stop-color="#EB4F98"/>
</linearGradient>
<linearGradient id="paint11_linear_47224_201519" x1="49" y1="80.5882" x2="536" y2="80.5882" gradientUnits="userSpaceOnUse">
<stop stop-color="#D13980"/>
<stop offset="1" stop-color="#EB4F98"/>
</linearGradient>
<linearGradient id="paint12_linear_47224_201519" x1="49" y1="80.5882" x2="536" y2="80.5882" gradientUnits="userSpaceOnUse">
<stop stop-color="#D13980"/>
<stop offset="1" stop-color="#EB4F98"/>
</linearGradient>
<linearGradient id="paint13_linear_47224_201519" x1="49" y1="80.5882" x2="536" y2="80.5882" gradientUnits="userSpaceOnUse">
<stop stop-color="#D13980"/>
<stop offset="1" stop-color="#EB4F98"/>
</linearGradient>
</defs>
</svg>

