<?xml version="1.0" encoding="UTF-8"?>
<svg id="_Слой_2" data-name="Слой_2" xmlns="http://www.w3.org/2000/svg" viewBox="0 0 430.45 132.07">
  <defs>
    <style>
      .cls-1 {
        fill: #fff;
      }

      .cls-2 {
        fill: #333;
        fill-rule: evenodd;
      }

      .cls-3 {
        fill: #ffdd2d;
      }
    </style>
  </defs>
  <g id="Layer_1">
    <g>
      <g>
        <path class="cls-1" d="M214.33,56.32c-2.97-1.14-6.85-1.49-11.08-1.49h-23.54v-7.31h40.44v-12.57h-57.01v54.38h38.62c5.37,0,9.37-.46,12.34-1.6,6.28-2.4,10.51-8.23,10.51-15.88s-4-13.14-10.28-15.54ZM206.1,75.17c-.91.34-2.17.46-3.77.46h-22.62v-8.68h22.62c1.83,0,3.31.11,4.46.69,1.37.69,2.06,1.94,2.06,3.54s-.8,3.31-2.74,4Z"/>
        <path class="cls-1" d="M271.06,34.96h-24.22l-22.28,54.38h18.74l3.08-7.88h25.13l3.2,7.88h18.62l-22.28-54.38ZM250.49,69.46l7.88-21.94h1.26l7.88,21.94h-17.02Z"/>
        <polygon class="cls-1" points="314.66 69.12 314.66 89.34 298.09 89.34 298.09 34.96 314.66 34.96 314.66 54.84 341.28 54.84 341.28 34.96 357.84 34.96 357.84 89.34 341.28 89.34 341.28 69.12 314.66 69.12"/>
        <polygon class="cls-1" points="384.06 68.78 384.06 89.34 367.5 89.34 367.5 34.96 384.06 34.96 384.06 55.41 388.63 55.41 408.63 34.96 429.42 34.96 402.91 61.01 430.45 89.34 408.4 89.34 388.63 68.78 384.06 68.78"/>
      </g>
      <g>
        <path class="cls-3" d="M0,0h132.07v66.42c0,17.03-9.08,32.76-23.83,41.28l-42.21,24.37-42.2-24.37C9.08,99.18,0,83.45,0,66.42V0Z"/>
        <path class="cls-2" d="M36.25,34.96v20.66c2.82-3.19,7.96-5.35,13.83-5.35h6.38v24.01c0,6.39-1.74,11.98-4.31,15.06h27.76c-2.57-3.08-4.3-8.66-4.3-15.05v-24.03h6.38c5.87,0,11.01,2.16,13.83,5.35v-20.66h-59.58Z"/>
      </g>
    </g>
  </g>
</svg>
