<svg width="10" height="50" viewBox="0 0 10 50" fill="none" xmlns="http://www.w3.org/2000/svg">
<path d="M8.99997 46.1735L1.19997 45.2135V44.3855L8.99997 45.3335V46.1735ZM8.99997 48.4175L1.19997 47.4575V46.6415L8.99997 47.5775V48.4175ZM4.19997 48.8255H3.28797V43.6895H4.19997V48.8255ZM6.65997 49.0655H5.74797V43.9295H6.65997V49.0655Z" fill="#0077FF"/>
<path d="M9.14397 39.1822C9.14397 39.7342 9.04397 40.2622 8.84397 40.7662C8.64397 41.2702 8.35997 41.7182 7.99197 42.1102L7.04397 41.2942C7.30797 40.9982 7.52397 40.6622 7.69197 40.2862C7.85197 39.9102 7.93197 39.5142 7.93197 39.0982C7.93197 38.6422 7.84397 38.2942 7.66797 38.0542C7.48397 37.8142 7.25597 37.6942 6.98397 37.6942C6.75197 37.6942 6.56797 37.7502 6.43197 37.8622C6.28797 37.9742 6.16797 38.1302 6.07197 38.3302C5.97597 38.5222 5.87597 38.7502 5.77197 39.0142L5.30397 40.0822C5.19197 40.3542 5.04797 40.6222 4.87197 40.8862C4.69597 41.1422 4.47197 41.3542 4.19997 41.5222C3.92797 41.6822 3.59997 41.7622 3.21597 41.7622C2.79997 41.7622 2.42797 41.6462 2.09997 41.4142C1.76397 41.1822 1.49997 40.8622 1.30797 40.4542C1.10797 40.0382 1.00797 39.5662 1.00797 39.0382C1.00797 38.5582 1.09997 38.1022 1.28397 37.6702C1.45997 37.2302 1.69997 36.8462 2.00397 36.5182L2.89197 37.2382C2.67597 37.5022 2.51197 37.7822 2.39997 38.0782C2.27997 38.3662 2.21997 38.7102 2.21997 39.1102C2.21997 39.4782 2.29997 39.7782 2.45997 40.0102C2.61997 40.2422 2.84797 40.3582 3.14397 40.3582C3.34397 40.3582 3.50797 40.2942 3.63597 40.1662C3.76397 40.0382 3.87597 39.8742 3.97197 39.6742C4.06797 39.4662 4.15997 39.2462 4.24797 39.0142L4.69197 37.9822C4.81997 37.6462 4.97597 37.3502 5.15997 37.0942C5.34397 36.8382 5.57197 36.6382 5.84397 36.4942C6.10797 36.3502 6.43197 36.2782 6.81597 36.2782C7.23997 36.2782 7.62797 36.3942 7.97997 36.6262C8.33197 36.8582 8.61597 37.1902 8.83197 37.6222C9.03997 38.0542 9.14397 38.5742 9.14397 39.1822Z" fill="#0077FF"/>
<path d="M8.99997 34.5308H0.527969V33.1388H5.83197V33.0908L3.10797 30.4388V28.9028L7.46397 33.1388H8.99997V34.5308ZM8.99997 30.1628L6.09597 32.1668L5.23197 31.3628L8.99997 28.6508V30.1628Z" fill="#0077FF"/>
<path d="M8.99997 24.8515H4.19997V27.4075H3.10797V23.4715H8.99997V24.8515ZM2.02797 24.2635C2.02797 24.5435 1.94397 24.7795 1.77597 24.9715C1.60797 25.1555 1.38397 25.2475 1.10397 25.2475C0.823969 25.2475 0.599969 25.1555 0.431969 24.9715C0.255969 24.7795 0.167969 24.5435 0.167969 24.2635C0.167969 23.9755 0.255969 23.7395 0.431969 23.5555C0.599969 23.3715 0.823969 23.2795 1.10397 23.2795C1.38397 23.2795 1.60797 23.3715 1.77597 23.5555C1.94397 23.7395 2.02797 23.9755 2.02797 24.2635Z" fill="#0077FF"/>
<path d="M9.14397 16.4202C9.14397 17.1002 8.94397 17.6202 8.54397 17.9802C8.13597 18.3322 7.57197 18.5082 6.85197 18.5082H1.61997V20.4282H0.527969V17.1282H6.92397C7.32397 17.1282 7.60797 17.0282 7.77597 16.8282C7.93597 16.6202 8.01597 16.3682 8.01597 16.0722C8.01597 15.9202 7.99997 15.7642 7.96797 15.6042C7.92797 15.4442 7.86797 15.2642 7.78797 15.0642L8.80797 14.7402C8.90397 15.0202 8.98397 15.2842 9.04797 15.5322C9.11197 15.7722 9.14397 16.0682 9.14397 16.4202Z" fill="#0077FF"/>
<path d="M9.14397 9.22491C9.14397 9.90491 8.94397 10.4249 8.54397 10.7849C8.13597 11.1369 7.57197 11.3129 6.85197 11.3129H1.61997V13.2329H0.527969V9.93291H6.92397C7.32397 9.93291 7.60797 9.83291 7.77597 9.63291C7.93597 9.42491 8.01597 9.17291 8.01597 8.87691C8.01597 8.72491 7.99997 8.56891 7.96797 8.40891C7.92797 8.24891 7.86797 8.06891 7.78797 7.86891L8.80797 7.54491C8.90397 7.82491 8.98397 8.08891 9.04797 8.33691C9.11197 8.57691 9.14397 8.87291 9.14397 9.22491Z" fill="#0077FF"/>
<path d="M9.14397 3.19359C9.14397 3.74559 9.05597 4.27359 8.87997 4.77759C8.69597 5.28159 8.47997 5.71759 8.23197 6.08559L7.35597 5.48559C7.58797 5.13359 7.77197 4.75359 7.90797 4.34559C8.03597 3.93759 8.09997 3.49359 8.09997 3.01359C8.09997 2.60559 8.03197 2.30559 7.89597 2.11359C7.75197 1.91359 7.58397 1.81359 7.39197 1.81359C7.29597 1.81359 7.20797 1.83759 7.12797 1.88559C7.04797 1.92559 6.97597 2.00159 6.91197 2.11359C6.83997 2.22559 6.77197 2.38959 6.70797 2.60559C6.64397 2.82159 6.57597 3.10159 6.50397 3.44559C6.33597 4.22959 6.10797 4.80559 5.81997 5.17359C5.53197 5.54159 5.16797 5.72559 4.72797 5.72559C4.20797 5.72559 3.78397 5.50159 3.45597 5.05359C3.12797 4.59759 2.96397 3.95759 2.96397 3.13359C2.96397 2.64559 3.04397 2.18959 3.20397 1.76559C3.36397 1.33359 3.54397 0.969594 3.74397 0.673594L4.59597 1.30959C4.40397 1.58959 4.25997 1.89759 4.16397 2.23359C4.05997 2.56959 4.00797 2.90959 4.00797 3.25359C4.00797 3.51759 4.03597 3.72959 4.09197 3.88959C4.14797 4.04159 4.22797 4.15759 4.33197 4.23759C4.42797 4.30959 4.53597 4.34559 4.65597 4.34559C4.86397 4.34559 5.01997 4.22559 5.12397 3.98559C5.22797 3.74559 5.33997 3.35359 5.45997 2.80959C5.59597 2.17759 5.75197 1.68959 5.92797 1.34559C6.09597 1.00159 6.29197 0.765594 6.51597 0.637594C6.73197 0.501594 6.99997 0.433594 7.31997 0.433594C7.65597 0.433594 7.96397 0.541594 8.24397 0.757594C8.51597 0.965594 8.73597 1.27359 8.90397 1.68159C9.06397 2.08959 9.14397 2.59359 9.14397 3.19359Z" fill="#0077FF"/>
</svg>
