<svg width="22" height="19" viewBox="0 0 22 19" fill="none" xmlns="http://www.w3.org/2000/svg">
<path d="M20.6844 0.971103C20.4763 0.794785 20.2243 0.678142 19.9553 0.633572C19.6862 0.589002 19.4101 0.618171 19.1563 0.717978L1.85 7.51485C1.54646 7.6305 1.28934 7.84273 1.11824 8.11885C0.94715 8.39497 0.871565 8.71968 0.903129 9.04298C0.93129 9.36615 1.06346 9.67148 1.27981 9.91319C1.49616 10.1549 1.78504 10.3199 2.10313 10.3836L6.5 11.2555V16.7492C6.49985 17.0464 6.58798 17.337 6.75323 17.584C6.91847 17.831 7.15337 18.0234 7.42813 18.1367C7.60997 18.2099 7.804 18.2481 8 18.2492C8.19701 18.2499 8.39218 18.2113 8.57409 18.1357C8.75599 18.06 8.92097 17.9488 9.05938 17.8086L11.4969 15.3805L15.1813 18.6242C15.4533 18.8641 15.803 18.9973 16.1656 18.9992C16.3251 19.0025 16.4839 18.9771 16.6344 18.9242C16.8818 18.8459 17.1045 18.7044 17.2804 18.5137C17.4563 18.323 17.5794 18.0896 17.6375 17.8367L21.1625 2.44298C21.2241 2.17735 21.2122 1.89996 21.1279 1.64062C21.0437 1.38128 20.8903 1.14981 20.6844 0.971103V0.971103ZM16.175 17.4992L8.45 10.7024L19.5781 2.66798L16.175 17.4992Z" fill="#111111"/>
</svg>
