<svg width="20" height="20" viewBox="0 0 20 20" fill="none" xmlns="http://www.w3.org/2000/svg">
<path d="M9.75074 2.81034e-08C8.05743 -0.000128521 6.39328 0.440745 4.92214 1.27921C3.45099 2.11768 2.22358 3.32483 1.36074 4.78182C0.497905 6.2388 0.0293942 7.89538 0.00133866 9.58846C-0.0267169 11.2815 0.38665 12.9527 1.20074 14.4375L0.403865 17.25C0.329527 17.5063 0.325348 17.7778 0.391766 18.0363C0.458183 18.2947 0.592761 18.5306 0.78145 18.7193C0.970139 18.908 1.20602 19.0426 1.46447 19.109C1.72292 19.1754 1.99446 19.1712 2.25074 19.0969L5.06324 18.3C6.36663 19.0144 7.8161 19.4213 9.30085 19.4897C10.7856 19.5581 12.2663 19.2861 13.6299 18.6945C14.9934 18.103 16.2036 17.2075 17.1681 16.0766C18.1325 14.9456 18.8256 13.6092 19.1945 12.1693C19.5633 10.7295 19.598 9.22439 19.296 7.76906C18.9941 6.31374 18.3633 4.94672 17.4521 3.77249C16.5409 2.59826 15.3732 1.6479 14.0385 0.994064C12.7037 0.340223 11.2371 0.000205883 9.75074 2.81034e-08V2.81034e-08ZM12.0101 15.75H12.0007C9.81184 15.7475 7.71345 14.8762 6.16654 13.3276C4.61963 11.7789 3.75074 9.67952 3.75074 7.49063C3.75322 6.59714 4.1099 5.74111 4.74256 5.1102C5.37523 4.47929 6.23226 4.125 7.12574 4.125C7.37134 4.12554 7.61246 4.19082 7.82479 4.31426C8.03711 4.43771 8.21314 4.61495 8.33511 4.82812L9.43199 6.75C9.56445 6.98017 9.6326 7.24171 9.62931 7.50725C9.62601 7.7728 9.55138 8.03257 9.41324 8.25937L8.74761 9.375C9.0823 9.94411 9.55663 10.4184 10.1257 10.7531L11.2414 10.0875C11.4682 9.94936 11.7279 9.87473 11.9935 9.87143C12.259 9.86814 12.5206 9.93629 12.7507 10.0687L14.6726 11.1656C14.8858 11.2876 15.063 11.4636 15.1865 11.676C15.3099 11.8883 15.3752 12.1294 15.3757 12.375C15.3757 13.2685 15.0215 14.1255 14.3905 14.7582C13.7596 15.3908 12.9036 15.7475 12.0101 15.75V15.75Z" fill="#111111"/>
<path d="M10.5476 12.2531C10.4433 12.3141 10.3259 12.3493 10.2053 12.3559C10.0846 12.3624 9.96414 12.34 9.85386 12.2906C8.67498 11.7681 7.73262 10.8258 7.21011 9.64688C7.16072 9.5366 7.13835 9.41612 7.14487 9.29546C7.15139 9.1748 7.18662 9.05744 7.24761 8.95312L8.12886 7.49063L7.06949 5.625C6.58286 5.63723 6.12029 5.83917 5.78049 6.18773C5.44069 6.53628 5.25059 7.00385 5.25074 7.49063C5.24951 8.37784 5.42319 9.25659 5.76186 10.0766C6.10053 10.8966 6.59753 11.6419 7.22445 12.2697C7.85137 12.8974 8.5959 13.3955 9.41546 13.7353C10.235 14.0751 11.1135 14.25 12.0007 14.25H12.0101C12.4969 14.2502 12.9645 14.06 13.313 13.7202C13.6616 13.3804 13.8635 12.9179 13.8757 12.4313L12.0101 11.3719L10.5476 12.2531Z" fill="#111111"/>
</svg>
